HIERARCHY
ROOT Hips
{
 OFFSET 0.000000 0.000000 0.000000
 CHANNELS 6 Xposition Yposition Zposition Yrotation Xrotation Zrotation
 JOINT Chest
 {
  OFFSET 0.000000 9.585900 0.002600
  CHANNELS 3 Yrotation Xrotation Zrotation
  JOINT Chest2
  {
   OFFSET 0.000000 9.601200 -0.005300
   CHANNELS 3 Yrotation Xrotation Zrotation
   JOINT Chest3
   {
    OFFSET 0.000000 9.561800 0.000000
    CHANNELS 3 Yrotation Xrotation Zrotation
    JOINT Chest4
    {
     OFFSET 0.000000 9.552100 0.000000
     CHANNELS 3 Yrotation Xrotation Zrotation
     JOINT Neck
     {
      OFFSET 0.000000 14.453000 0.000000
      CHANNELS 3 Yrotation Xrotation Zrotation
      JOINT Head
      {
       OFFSET 0.000000 8.936500 -0.011300
       CHANNELS 3 Yrotation Xrotation Zrotation
       End Site
       {
        OFFSET 0.000000 17.073600 -0.006000
       }
      }
     }
     JOINT RightCollar
     {
      OFFSET -2.921100 9.558500 0.000000
      CHANNELS 3 Yrotation Xrotation Zrotation
      JOINT RightShoulder
      {
       OFFSET -13.519700 0.000000 0.000000
       CHANNELS 3 Yrotation Xrotation Zrotation
       JOINT RightElbow
       {
        OFFSET 0.000000 -29.696600 0.000000
        CHANNELS 3 Yrotation Xrotation Zrotation
        JOINT RightWrist
        {
         OFFSET 0.000000 -24.004700 0.000000
         CHANNELS 3 Yrotation Xrotation Zrotation
         End Site
         {
          OFFSET 0.000000 -17.728500 0.000000
         }
        }
       }
      }
     }
     JOINT LeftCollar
     {
      OFFSET 2.921100 9.558500 0.000000
      CHANNELS 3 Yrotation Xrotation Zrotation
      JOINT LeftShoulder
      {
       OFFSET 13.519700 0.000000 0.000000
       CHANNELS 3 Yrotation Xrotation Zrotation
       JOINT LeftElbow
       {
        OFFSET 0.000000 -29.696600 0.000000
        CHANNELS 3 Yrotation Xrotation Zrotation
        JOINT LeftWrist
        {
         OFFSET 0.000000 -24.004700 0.000000
         CHANNELS 3 Yrotation Xrotation Zrotation
         End Site
         {
          OFFSET 0.000000 -17.728500 0.000000
         }
        }
       }
      }
     }
    }
   }
  }
 }
 JOINT RightHip
 {
  OFFSET -7.771700 -0.012900 -0.001300
  CHANNELS 3 Yrotation Xrotation Zrotation
  JOINT RightKnee
  {
   OFFSET 0.000000 -40.869800 0.001200
   CHANNELS 3 Yrotation Xrotation Zrotation
   JOINT RightAnkle
   {
    OFFSET 0.000000 -39.717900 0.002100
    CHANNELS 3 Yrotation Xrotation Zrotation
    JOINT RightToe
    {
     OFFSET 0.000000 -4.965400 11.033500
     CHANNELS 3 Yrotation Xrotation Zrotation
     End Site
     {
      OFFSET 0.000000 -1.423100 5.872300
     }
    }
   }
  }
 }
 JOINT LeftHip
 {
  OFFSET 7.771700 -0.012900 -0.001300
  CHANNELS 3 Yrotation Xrotation Zrotation
  JOINT LeftKnee
  {
   OFFSET 0.000000 -40.869800 0.001200
   CHANNELS 3 Yrotation Xrotation Zrotation
   JOINT LeftAnkle
   {
    OFFSET 0.000000 -39.717900 0.002100
    CHANNELS 3 Yrotation Xrotation Zrotation
    JOINT LeftToe
    {
     OFFSET 0.000000 -4.965400 11.033500
     CHANNELS 3 Yrotation Xrotation Zrotation
     End Site
     {
      OFFSET 0.000000 -1.423100 5.872300
     }
    }
   }
  }
 }
}
MOTION
Frames: 12
Frame Time: 0.008333
-233.617490 57.684148 22.632247 173.818029 -51.016658 -3.425980 4.447565 22.309073 3.377405 2.332473 12.763481 1.688010 2.995310 15.942449 2.207794 2.332607 12.736549 1.677760 0.457127 17.166397 2.239707 0.081444 -3.950764 3.963679 2.276442 2.344261 1.372126 -2.031996 -18.691002 -8.524646 -30.286269 -33.566679 75.712753 -5.439379 -7.345086 -4.837714 -10.349674 -0.905433 -1.053416 1.148430 -16.460727 10.249739 27.239695 -23.857379 -75.734598 7.014304 -8.154567 19.795085 5.454553 -21.064573 -0.025316 -40.523989 72.635180 -44.110039 4.554098 -13.224748 12.108040 0.002940 -0.006497 0.010387 -9.247940 -18.414110 9.760939 55.267863 81.716885 57.511374 0.102268 -18.340885 -22.726630 0.012197 0.009722 0.008093
-233.618276 57.683646 22.634026 173.826420 -51.042474 -3.431469 4.446254 22.308668 3.377293 2.332239 12.763138 1.686913 2.994697 15.915148 2.198260 2.334114 12.775745 1.691582 0.449031 17.169474 2.247184 0.065891 -3.920082 3.990697 2.279143 2.331302 1.367811 -2.030752 -18.695898 -8.517667 -30.274543 -33.565247 75.680468 -5.438149 -7.340304 -4.824770 -10.348483 -0.922846 -1.050731 1.164229 -16.485679 10.232337 27.207448 -23.819817 -75.703564 7.008983 -8.160623 19.798433 5.453451 -21.038700 -0.022615 -40.521933 72.635863 -44.108626 4.553752 -13.224697 12.107810 0.000117 -0.007761 0.009815 -9.251048 -18.390642 9.760054 55.268536 81.715631 57.507789 0.099988 -18.337543 -22.727735 0.010071 0.010508 0.011222
-233.619335 57.683125 22.635989 173.839753 -51.066665 -3.440201 4.441718 22.306473 3.375407 2.331598 12.750034 1.682778 2.991671 15.934949 2.202359 2.338461 12.781137 1.694483 0.442980 17.170489 2.255376 0.051549 -3.892414 4.016559 2.283005 2.322017 1.363049 -2.029796 -18.700554 -8.511968 -30.260705 -33.560961 75.649306 -5.447038 -7.342666 -4.813012 -10.341500 -0.941611 -1.051174 1.164091 -16.474190 10.228437 27.204781 -23.804689 -75.697210 7.000978 -8.162832 19.800702 5.449468 -21.013760 -0.021396 -40.517419 72.638343 -44.106980 4.553991 -13.226606 12.111548 0.001822 -0.008347 0.008788 -9.258099 -18.371317 9.761794 55.274385 81.717596 57.508546 0.090944 -18.333795 -22.724564 0.006892 0.008875 0.011150
-233.620322 57.682660 22.638207 173.847724 -51.089848 -3.446870 4.442216 22.286965 3.372469 2.327141 12.779742 1.687414 2.991695 15.941109 2.204139 2.325603 12.739739 1.677907 0.447406 17.205155 2.272726 0.046360 -3.869893 4.036364 2.302483 2.348436 1.370257 -2.032565 -18.707833 -8.507072 -30.243807 -33.583953 75.617433 -5.484019 -7.340624 -4.797730 -10.320687 -0.926770 -1.051722 1.157099 -16.446149 10.234659 27.200066 -23.799779 -75.693839 6.997010 -8.175758 19.803083 5.449755 -20.989557 -0.016739 -40.492570 72.633001 -44.087160 4.555195 -13.219517 12.118628 -0.003913 -0.008951 0.007874 -9.261023 -18.349955 9.759363 55.278800 81.716378 57.511792 0.090426 -18.332233 -22.725260 0.008003 0.008927 0.010745
-233.621422 57.682575 22.640404 173.855557 -51.114214 -3.454422 4.440885 22.305554 3.375908 2.327681 12.762696 1.684419 2.988868 15.941218 2.203017 2.326748 12.750328 1.681539 0.435137 17.195252 2.278835 0.039289 -3.844554 4.051548 2.308463 2.338118 1.362497 -2.020897 -18.740671 -8.500207 -30.230309 -33.559308 75.572438 -5.490137 -7.337033 -4.784277 -10.311932 -0.940470 -1.053487 1.159870 -16.452563 10.229551 27.186061 -23.777014 -75.679349 6.992235 -8.178130 19.808296 5.452875 -20.964333 -0.010310 -40.499437 72.627831 -44.090622 4.557221 -13.218836 12.117554 -0.002346 -0.008370 0.009134 -9.263272 -18.327289 9.757598 55.274893 81.712602 57.501491 0.094817 -18.326760 -22.722836 0.005968 0.010657 0.010625
-233.623161 57.682389 22.642839 173.863464 -51.136187 -3.459760 4.437440 22.302467 3.371114 2.325567 12.738901 1.681687 2.989497 15.951786 2.206928 2.329751 12.775480 1.687702 0.432677 17.199269 2.282958 0.013777 -3.845871 4.086463 2.312014 2.327640 1.356059 -2.016515 -18.742026 -8.491176 -30.215730 -33.561709 75.538547 -5.494304 -7.335218 -4.764564 -10.302917 -0.949114 -1.056599 1.163617 -16.461257 10.223814 27.185345 -23.754670 -75.664951 6.982507 -8.165596 19.808318 5.450702 -20.941559 -0.007212 -40.492374 72.626363 -44.084207 4.543690 -13.219258 12.118142 -0.001651 -0.004754 0.009534 -9.266008 -18.309291 9.758974 55.264364 81.712110 57.483196 0.082650 -18.321059 -22.713885 0.014781 0.006451 0.007450
-233.624526 57.682511 22.645278 173.874177 -51.158620 -3.470324 4.431686 22.285776 3.369699 2.324149 12.756816 1.684972 2.990319 15.959930 2.208945 2.326654 12.761623 1.686391 0.423042 17.191456 2.291995 0.023550 -3.813320 4.080961 2.319899 2.331489 1.351282 -2.011129 -18.742871 -8.483993 -30.197744 -33.564007 75.502379 -5.500816 -7.339720 -4.756316 -10.292295 -0.969437 -1.064361 1.164158 -16.441767 10.221736 27.167391 -23.734010 -75.646008 6.974771 -8.171944 19.811603 5.453027 -20.913390 0.002313 -40.488385 72.614664 -44.076231 4.536971 -13.217085 12.121689 -0.000369 -0.003801 0.006721 -9.271243 -18.288061 9.760848 55.246463 81.708971 57.459078 0.090658 -18.315609 -22.714972 0.005903 0.010246 0.008551
-233.626465 57.680976 22.649025 173.877785 -51.167236 -3.472933 4.427716 22.270222 3.367927 2.320673 12.762868 1.683718 2.990151 15.958445 2.208727 2.323677 12.762267 1.685619 0.417579 17.189333 2.297558 0.025712 -3.807527 4.091050 2.336844 2.326699 1.345693 -2.014718 -18.737467 -8.476063 -30.184935 -33.563720 75.477686 -5.496113 -7.348556 -4.751403 -10.283070 -0.978039 -1.071236 1.161890 -16.462438 10.223757 27.151007 -23.697420 -75.615431 6.973547 -8.170016 19.810496 5.453670 -20.903037 0.006898 -40.447202 72.607314 -44.043932 4.528336 -13.206575 12.132057 -0.001217 -0.004221 0.004440 -9.274046 -18.284227 9.763000 55.238121 81.708859 57.446544 0.087599 -18.310130 -22.714488 0.005181 0.010352 0.009683
-233.628548 57.680037 22.652188 173.881507 -51.179308 -3.473993 4.421404 22.264629 3.365060 2.316984 12.764301 1.681837 2.978741 15.946682 2.200178 2.317208 12.764526 1.682856 0.429146 17.201216 2.305779 0.018267 -3.822202 4.109723 2.372996 2.334453 1.344138 -2.019841 -18.744528 -8.474489 -30.180139 -33.543396 75.461350 -5.490096 -7.349029 -4.749450 -10.258058 -0.986202 -1.078073 1.158835 -16.452402 10.226362 27.142417 -23.679838 -75.595219 6.970635 -8.168851 19.810555 5.455377 -20.888461 0.009612 -40.441507 72.602681 -44.043120 4.527837 -13.209131 12.138984 -0.006017 -0.000896 0.003238 -9.276572 -18.274279 9.763225 55.213581 81.711438 57.414619 0.087760 -18.306757 -22.709679 0.003948 0.010800 0.009606
-233.630947 57.682796 22.652109 173.888695 -51.218796 -3.473030 4.414578 22.291094 3.360574 2.311156 12.762234 1.679140 2.970653 15.945731 2.196862 2.328112 12.779162 1.683884 0.419907 17.188891 2.309469 0.020143 -3.826878 4.116721 2.382595 2.330703 1.341258 -2.014692 -18.770252 -8.479930 -30.172836 -33.534191 75.436856 -5.474496 -7.344733 -4.748980 -10.253737 -0.998733 -1.081229 1.158790 -16.455902 10.224609 27.133520 -23.674413 -75.565422 6.975050 -8.170159 19.805326 5.457012 -20.845422 0.008630 -40.438657 72.598935 -44.044378 4.522305 -13.207287 12.149495 -0.005221 -0.002236 -0.000562 -9.275152 -18.235773 9.751162 55.198818 81.712649 57.396842 0.084289 -18.302407 -22.707591 0.004740 0.006287 0.010065
-233.632270 57.683005 22.654064 173.891366 -51.237714 -3.475299 4.407695 22.294027 3.358595 2.307466 12.764370 1.677589 2.973477 15.953415 2.196523 2.321071 12.771962 1.680284 0.422809 17.191775 2.314482 0.017927 -3.844447 4.128116 2.406655 2.318520 1.335975 -2.021701 -18.767639 -8.477039 -30.146112 -33.544896 75.394584 -5.505699 -7.352194 -4.733699 -10.241469 -1.000261 -1.084396 1.157191 -16.465028 10.222578 27.120865 -23.655614 -75.539805 6.973381 -8.181842 19.817233 5.456873 -20.825358 0.011316 -40.433756 72.595657 -44.042568 4.527982 -13.208847 12.152693 -0.006078 -0.001549 -0.000996 -9.275548 -18.221811 9.751918 55.202950 81.719286 57.397911 0.090248 -18.295036 -22.707245 -0.002631 0.002818 0.009124
-233.633010 57.682551 22.656388 173.895779 -51.250542 -3.481633 4.398145 22.288925 3.358524 2.305350 12.771365 1.677409 2.974565 15.959341 2.194102 2.297332 12.763192 1.678605 0.448045 17.203577 2.310922 0.012604 -3.870095 4.137592 2.455275 2.285563 1.314450 -2.040749 -18.740643 -8.463984 -30.138625 -33.528627 75.379016 -5.504683 -7.350673 -4.733531 -10.219731 -1.051467 -1.099979 1.162277 -16.424932 10.228873 27.106680 -23.635338 -75.512064 6.973768 -8.187279 19.819031 5.457917 -20.807725 0.019739 -40.437348 72.586470 -44.043825 4.523939 -13.210015 12.157264 -0.000530 -0.000246 -0.001769 -9.276012 -18.210162 9.756608 55.196333 81.716319 57.391056 0.085245 -18.291609 -22.705259 0.005390 0.002962 0.007608
